<?xml version="1.0" standalone="no"?>
<!DOCTYPE svg PUBLIC "-//W3C//DTD SVG 20010904//EN"
 "http://www.w3.org/TR/2001/REC-SVG-20010904/DTD/svg10.dtd">
<svg version="1.0" xmlns="http://www.w3.org/2000/svg"
 width="1024.000000pt" height="1024.000000pt" viewBox="0 0 1024.000000 1024.000000"
 preserveAspectRatio="xMidYMid meet">

<g transform="translate(0.000000,1024.000000) scale(0.100000,-0.100000)"
fill="#000000" stroke="none">
<path d="M0 5120 l0 -5120 5120 0 5120 0 0 5120 0 5120 -5120 0 -5120 0 0
-5120z m5367 4100 c223 -4 495 -42 720 -101 87 -23 178 -46 203 -51 25 -6 54
-17 65 -24 11 -8 29 -14 41 -14 24 0 132 -39 210 -76 28 -13 54 -24 58 -24 5
0 24 -7 44 -16 21 -9 46 -20 57 -24 11 -4 73 -33 137 -64 132 -62 140 -62 225
-4 23 15 54 33 70 39 15 5 41 16 58 24 72 33 239 95 350 129 66 20 138 43 160
51 22 7 63 18 90 23 28 6 76 16 109 22 35 7 61 8 65 3 3 -5 20 -18 38 -28 37
-22 50 -49 57 -121 5 -47 -16 -253 -28 -272 -3 -5 -8 -31 -11 -58 -8 -64 -33
-209 -45 -254 -5 -19 -11 -60 -15 -90 -3 -30 -13 -81 -22 -113 l-16 -58 53
-47 c127 -112 262 -253 345 -360 28 -35 72 -91 98 -125 46 -60 116 -162 225
-332 28 -44 54 -85 59 -91 34 -44 212 -406 256 -519 97 -253 116 -312 177
-555 96 -380 146 -794 136 -1110 -5 -163 -25 -346 -51 -465 -2 -11 -20 -112
-40 -225 -19 -113 -47 -242 -60 -286 -14 -45 -25 -90 -25 -100 0 -15 -50 -167
-85 -259 -104 -271 -179 -432 -305 -655 -75 -131 -234 -362 -299 -432 -31 -33
-77 -86 -116 -134 -60 -73 -329 -353 -400 -415 -17 -15 -45 -43 -63 -62 -57
-62 -140 -69 -158 -14 -19 59 33 130 191 263 39 32 72 62 75 65 7 9 138 155
191 214 50 56 152 181 189 235 13 19 33 44 43 55 10 11 26 34 34 50 9 17 26
44 38 60 54 71 165 266 255 445 81 162 193 443 241 605 60 205 135 573 152
745 15 157 16 643 0 815 -45 521 -245 1141 -516 1605 -49 84 -172 268 -271
405 -92 128 -386 445 -413 445 -8 0 -53 -81 -102 -182 -102 -209 -133 -282
-166 -388 -31 -100 -80 -218 -105 -252 -24 -33 -25 -63 -4 -137 20 -71 27
-102 54 -231 12 -58 28 -131 36 -162 20 -84 36 -243 30 -306 -3 -30 -8 -100
-12 -156 -3 -55 -13 -146 -21 -201 -19 -127 -30 -293 -21 -309 11 -20 81 -2
393 99 84 27 150 46 175 49 8 1 33 7 55 13 61 17 124 23 130 13 3 -6 1 -10 -4
-10 -6 0 -11 -9 -11 -19 0 -18 -60 -44 -244 -107 -25 -9 -46 -21 -46 -27 0 -6
-3 -8 -6 -5 -3 3 -33 -5 -66 -18 -34 -13 -63 -22 -66 -20 -2 3 -20 -4 -40 -14
-21 -11 -71 -26 -112 -35 -41 -8 -91 -21 -110 -27 -19 -6 -44 -13 -55 -14 -11
-2 -69 -15 -130 -28 -76 -18 -152 -27 -245 -30 -156 -5 -340 -14 -490 -22 -58
-3 -116 -7 -130 -7 -33 -2 -40 -14 -28 -49 8 -21 7 -51 -1 -99 -14 -84 -8 -93
64 -96 86 -2 217 -20 280 -37 37 -10 99 -16 165 -16 58 0 133 -4 167 -9 34 -5
71 -7 83 -4 29 8 125 158 150 238 17 53 31 62 112 70 37 3 114 22 170 41 57
20 112 37 123 39 106 21 324 88 380 117 39 20 81 39 95 43 14 3 35 11 48 17
18 9 26 8 39 -5 15 -15 14 -19 -21 -50 -59 -55 -197 -113 -336 -142 -19 -4
-39 -11 -45 -15 -15 -11 -388 -130 -409 -130 -4 0 -32 -11 -61 -25 -48 -22
-55 -29 -65 -67 -7 -24 -18 -58 -26 -76 -8 -18 -14 -35 -14 -38 0 -3 120 -2
268 1 192 4 286 10 336 22 53 12 65 18 52 25 -10 5 -24 7 -32 4 -10 -4 -14 -1
-12 6 5 14 107 40 122 31 5 -4 6 -1 1 7 -5 9 -2 10 14 5 13 -4 28 -1 37 6 13
10 17 10 24 0 10 -17 30 -6 31 17 0 11 3 12 6 5 5 -14 25 -18 20 -5 -1 4 3 9
8 12 6 3 10 -10 10 -29 0 -24 -7 -39 -25 -52 -39 -29 -266 -79 -356 -79 -22 0
-73 -6 -114 -14 -51 -9 -133 -13 -253 -11 -161 3 -179 1 -201 -16 -26 -20
-133 -28 -121 -9 3 6 -1 10 -10 10 -9 0 -13 -5 -10 -10 7 -11 -22 -8 -160 15
-44 8 -112 15 -152 17 -39 2 -69 6 -67 9 2 4 -18 9 -44 12 -26 4 -58 9 -72 11
-14 3 -41 7 -60 10 -19 3 -61 12 -93 20 -59 16 -77 15 -77 -7 0 -21 -72 -97
-91 -97 -20 0 -24 -16 -11 -37 5 -7 33 -15 63 -18 29 -3 72 -12 94 -19 22 -8
81 -17 130 -19 93 -6 127 -11 146 -22 5 -4 25 -9 42 -12 18 -3 40 -9 49 -14 9
-5 34 -9 55 -9 21 -1 56 -7 78 -15 56 -21 82 -19 112 9 20 18 33 23 62 19 20
-2 72 3 116 12 82 16 144 24 395 50 292 30 497 83 588 153 81 63 92 67 114 45
18 -19 18 -20 0 -61 -10 -23 -30 -50 -44 -61 -27 -22 -217 -101 -242 -101 -8
0 -37 -7 -63 -15 -237 -74 -378 -96 -631 -96 -144 0 -172 -4 -172 -20 0 -15
77 -49 110 -49 40 0 80 -39 80 -78 0 -40 -24 -57 -78 -55 -29 1 -41 -2 -32 -7
9 -5 -2 -11 -35 -16 -31 -4 -55 -3 -67 5 -10 6 -32 11 -49 11 -18 0 -37 7 -43
15 -14 19 -70 5 -95 -22 -9 -10 -66 -72 -127 -138 -60 -66 -126 -140 -146
-165 -34 -43 -178 -265 -178 -276 0 -3 -8 -17 -19 -32 -29 -42 -116 -191 -191
-327 -18 -33 -55 -95 -82 -137 -26 -42 -48 -81 -48 -85 0 -5 -21 -42 -46 -83
-26 -41 -68 -127 -94 -191 -25 -63 -62 -137 -81 -163 -19 -26 -43 -60 -54 -75
-37 -52 -132 -105 -238 -132 -110 -28 -363 -60 -462 -58 -49 1 -119 -4 -155
-10 -92 -15 -231 -14 -328 3 -82 15 -85 17 -165 88 -199 176 -267 255 -267
309 0 27 -51 119 -96 175 -19 23 -34 46 -34 51 0 6 -48 64 -106 129 -59 66
-114 130 -123 144 -9 14 -20 30 -26 36 -5 6 -16 21 -24 32 -8 12 -19 18 -25
15 -5 -4 -7 1 -3 10 3 10 2 17 -4 17 -12 0 -39 25 -39 36 0 4 -10 16 -23 28
-12 11 -29 30 -37 42 -8 11 -46 56 -85 98 -38 42 -73 83 -78 91 -4 8 -12 15
-18 15 -16 0 -128 123 -138 153 -6 15 -8 27 -5 27 8 0 46 -21 60 -34 83 -72
234 -230 336 -351 7 -9 27 -31 43 -49 17 -19 37 -44 45 -57 8 -12 28 -34 44
-48 16 -14 46 -48 68 -76 83 -108 113 -142 173 -206 91 -96 175 -232 175 -284
0 -34 -5 -28 196 -221 106 -103 158 -125 307 -131 80 -3 126 0 175 12 36 9
115 18 176 21 102 3 195 10 271 19 17 2 53 6 80 10 100 12 145 28 203 75 58
46 79 79 114 179 17 47 53 129 112 251 9 19 28 53 42 75 13 22 33 59 45 82 11
22 29 49 40 59 10 9 19 22 19 27 0 5 17 37 39 71 21 34 49 86 62 116 23 56 54
104 95 150 13 14 45 63 72 110 157 271 191 316 315 425 32 28 82 82 112 120
39 50 70 79 110 100 30 17 55 36 55 43 0 16 -39 51 -57 52 -7 0 -37 11 -68 25
-30 13 -74 27 -97 30 -23 4 -63 14 -88 24 -26 10 -58 17 -73 17 -15 -1 -27 1
-27 5 0 3 -14 6 -32 7 -17 0 -45 8 -62 16 -63 31 -166 56 -231 56 -36 0 -65 4
-65 10 0 6 -9 6 -23 1 -43 -17 -115 -6 -137 20 -12 15 -19 19 -20 10 0 -11 -3
-11 -15 -1 -8 7 -15 16 -15 20 0 13 39 19 44 6 3 -7 9 -6 18 5 7 9 23 19 34
23 34 11 50 128 34 251 -7 53 -11 97 -9 99 2 2 13 6 24 10 18 5 21 1 22 -29 1
-64 4 -66 75 -43 35 11 76 22 91 23 40 3 52 18 35 44 -11 18 -11 23 2 31 8 5
17 7 20 5 4 -2 24 1 46 6 38 11 38 11 14 24 -20 11 -7 13 96 12 65 0 155 5
199 11 44 6 163 16 264 22 178 10 222 18 342 61 l25 10 -12 72 c-13 75 -12 94
10 191 8 32 15 116 15 186 1 71 6 143 12 162 28 91 18 272 -22 399 -6 19 -14
77 -19 129 -4 52 -13 111 -19 130 -58 187 -71 300 -40 336 15 18 26 49 36 99
5 27 80 208 141 340 54 117 99 239 157 425 19 63 39 122 44 131 12 21 52 166
58 209 2 19 9 53 15 75 11 45 19 81 23 110 1 11 3 20 5 20 6 0 11 67 15 205 2
85 4 161 4 168 1 7 5 11 10 8 4 -3 6 -16 4 -28 -2 -13 0 -34 5 -48 8 -23 11
-20 26 34 10 32 15 64 12 71 -4 13 -112 26 -122 15 -3 -2 -24 -6 -47 -7 -23
-2 -61 -12 -84 -23 -23 -11 -62 -24 -85 -30 -70 -15 -155 -48 -293 -110 -128
-57 -165 -77 -240 -125 -44 -28 -95 -60 -112 -70 -18 -11 -33 -23 -33 -27 0
-4 -7 -8 -15 -8 -8 0 -15 -3 -15 -7 -1 -5 -28 -28 -61 -53 -88 -66 -224 -179
-314 -261 -27 -25 -61 -53 -75 -62 -14 -10 -48 -40 -76 -68 -55 -53 -132 -89
-192 -89 -20 0 -67 17 -112 40 -76 38 -222 87 -285 96 -16 2 -63 11 -105 20
-41 9 -118 20 -170 25 -52 5 -158 17 -235 26 -202 23 -322 22 -610 -3 -33 -3
-76 -9 -95 -14 -19 -5 -91 -16 -160 -25 -116 -15 -358 -82 -384 -106 -6 -5
-16 -9 -24 -9 -7 0 -37 -11 -65 -23 -29 -13 -89 -36 -134 -52 -67 -23 -87 -26
-105 -17 -49 23 -70 24 -126 1 -31 -13 -61 -29 -67 -36 -16 -19 -103 -53 -140
-53 -32 0 -64 12 -204 77 -40 19 -90 40 -110 47 -20 7 -65 25 -101 39 -36 14
-96 38 -134 53 -38 14 -77 30 -85 35 -47 26 -157 68 -331 126 -169 57 -206 66
-280 68 -53 2 -96 9 -115 19 -16 9 -36 16 -43 16 -7 0 -10 4 -7 10 4 6 -6 8
-25 6 -21 -2 -33 1 -37 11 -3 8 -14 13 -24 10 -11 -3 -22 -1 -25 4 -3 5 -11 9
-17 8 -32 -4 -61 2 -49 9 8 6 1 9 -20 9 -18 1 -49 2 -70 4 -66 5 -70 -4 -64
-180 2 -86 9 -185 15 -221 5 -36 15 -101 22 -145 6 -44 32 -136 56 -204 24
-68 57 -163 73 -210 44 -135 103 -275 130 -306 10 -11 33 -50 52 -86 19 -37
53 -92 74 -124 54 -80 244 -272 286 -289 33 -14 132 -117 156 -162 12 -22 0
-44 -24 -44 -14 0 -21 -61 -30 -245 -3 -77 -15 -179 -25 -227 -26 -120 -25
-141 10 -177 31 -31 43 -80 62 -251 21 -187 12 -177 189 -210 30 -5 96 -19
145 -30 50 -12 155 -25 235 -31 80 -5 192 -13 250 -17 58 -5 131 -8 163 -8 31
1 57 -1 57 -4 0 -11 356 -4 381 7 54 23 192 40 264 32 119 -13 159 -20 174
-32 8 -7 31 -13 53 -13 67 -2 72 -4 106 -32 26 -22 34 -38 42 -86 5 -32 16
-66 24 -75 16 -17 17 -9 -40 -206 -10 -33 -22 -63 -28 -67 -38 -26 -55 16 -26
64 11 19 27 58 35 86 16 54 18 142 3 142 -5 0 -8 15 -7 33 2 18 -1 39 -6 47
-8 11 -11 5 -15 -25 -3 -22 -2 -45 2 -50 9 -14 -10 -141 -28 -183 -8 -18 -12
-37 -9 -42 8 -12 -16 -60 -30 -60 -6 0 -18 11 -25 25 -7 14 -17 25 -22 25 -5
0 -7 -4 -4 -8 3 -5 -1 -9 -9 -9 -8 0 -12 4 -9 9 8 13 -249 1 -336 -16 -41 -8
-100 -24 -130 -35 -30 -11 -63 -20 -73 -21 -10 0 -50 -16 -89 -35 -39 -19 -75
-32 -80 -29 -5 3 -15 -1 -21 -9 -14 -17 -268 -109 -322 -116 -3 0 -19 -8 -37
-17 -50 -26 -138 -54 -170 -54 -39 0 -36 -20 10 -69 20 -22 51 -55 68 -73 79
-85 130 -114 216 -123 84 -9 94 -13 107 -41 10 -22 9 -29 -1 -36 -22 -15 -258
11 -299 32 -22 13 -40 43 -46 82 -2 15 -14 39 -26 51 -12 12 -40 44 -62 71
-85 102 -90 106 -143 106 -40 0 -57 6 -93 33 -67 51 -75 54 -199 61 -63 4
-149 12 -190 18 -41 6 -91 11 -111 10 -61 -4 -161 15 -214 39 -27 13 -56 22
-62 21 -7 -2 -13 2 -13 8 0 6 -4 9 -9 6 -4 -3 -17 4 -27 15 -11 12 -38 32 -61
46 -43 25 -132 116 -134 137 -5 53 8 106 26 106 7 0 15 6 17 12 3 9 10 8 23
-5 30 -31 60 -40 240 -75 112 -21 341 -20 453 3 42 9 78 18 81 20 8 9 -73 115
-88 115 -9 0 -41 9 -71 21 -30 11 -74 27 -98 35 -23 7 -55 20 -70 28 -15 8
-76 30 -137 49 -193 62 -259 90 -341 143 -13 9 -24 22 -24 29 0 7 -11 23 -25
36 -23 23 -36 57 -16 45 5 -4 11 -1 13 6 3 7 21 0 50 -20 26 -18 54 -32 62
-32 8 0 39 -10 68 -23 29 -13 99 -39 156 -57 56 -18 102 -37 102 -41 0 -5 3
-8 8 -7 4 0 32 -10 63 -25 31 -14 76 -31 100 -37 24 -6 54 -18 66 -26 12 -7
43 -18 70 -24 26 -5 73 -22 103 -36 45 -21 59 -34 78 -72 27 -53 86 -124 119
-141 12 -6 43 -11 70 -11 53 0 187 23 224 39 13 6 56 15 94 20 139 19 279 42
349 57 39 9 85 18 101 20 101 16 136 25 168 44 38 23 41 28 31 54 -5 13 -24
16 -103 17 -53 0 -152 5 -221 10 -69 5 -150 11 -180 13 -99 7 -350 33 -495 51
-16 2 -50 8 -75 13 -25 6 -74 13 -110 17 -36 4 -105 21 -155 37 -49 16 -156
47 -238 68 -81 22 -158 47 -172 56 -14 9 -25 14 -25 10 0 -3 -17 1 -38 9 -20
8 -53 16 -72 19 -57 7 -162 34 -173 45 -8 8 -3 19 16 39 27 28 30 29 84 20 31
-5 60 -11 64 -14 4 -2 27 -8 51 -13 24 -5 68 -19 98 -31 30 -12 84 -30 120
-42 36 -11 88 -28 115 -38 28 -10 61 -18 74 -18 21 -1 22 1 8 16 -19 21 -34
109 -36 216 -2 65 -7 89 -32 137 -16 33 -27 59 -24 59 2 0 0 12 -5 26 -8 19
-6 43 5 88 18 67 33 215 42 402 l5 121 -28 6 c-36 7 -121 90 -223 217 -42 52
-88 108 -103 124 -16 17 -28 34 -28 38 0 13 -125 203 -142 216 -10 7 -18 18
-18 23 0 6 -11 25 -24 42 -13 18 -36 60 -52 95 -15 34 -31 62 -35 62 -8 0 -90
-110 -135 -180 -16 -25 -31 -47 -34 -50 -6 -6 -23 -36 -70 -124 -20 -39 -51
-95 -69 -124 -17 -29 -31 -55 -31 -57 0 -3 -16 -39 -35 -81 -19 -41 -35 -77
-35 -80 0 -2 -26 -66 -59 -141 -69 -161 -104 -261 -126 -358 -9 -38 -24 -95
-35 -125 -10 -30 -26 -91 -34 -135 -21 -107 -66 -382 -72 -431 -11 -106 -10
-516 1 -669 7 -93 16 -213 20 -265 8 -98 67 -425 84 -457 8 -16 42 -122 47
-148 6 -35 101 -300 124 -350 16 -33 42 -94 58 -136 17 -42 45 -103 63 -135
18 -32 51 -95 73 -140 23 -44 59 -108 81 -143 99 -155 172 -262 226 -331 32
-41 75 -98 96 -126 43 -58 173 -204 248 -279 73 -73 244 -234 294 -277 36 -31
42 -41 37 -63 -9 -36 -46 -75 -70 -75 -28 0 -74 29 -128 81 -25 24 -70 66
-102 92 -128 110 -426 427 -484 517 -9 14 -27 36 -40 50 -12 14 -33 41 -46 60
-12 19 -46 69 -74 111 -51 75 -152 246 -152 256 0 3 -9 17 -20 33 -54 76 -255
513 -246 536 3 7 0 14 -5 16 -14 5 -82 210 -114 348 -15 63 -34 134 -41 158
-8 23 -14 51 -14 62 0 10 -7 45 -14 77 -8 32 -17 72 -20 88 -2 17 -9 55 -16
85 -24 124 -48 371 -54 577 -4 144 20 460 49 648 8 50 16 108 20 130 8 58 33
161 56 235 11 36 24 83 28 105 22 105 112 386 153 475 6 14 12 27 13 30 52
163 400 761 517 887 24 26 22 57 -12 153 -13 36 -32 88 -41 115 -44 122 -78
271 -100 437 -16 118 5 216 62 288 49 62 87 75 166 54 30 -8 59 -17 64 -20 17
-10 115 -35 234 -58 280 -56 374 -78 446 -103 l75 -26 84 59 c46 32 98 68 116
79 17 11 76 50 131 86 86 58 298 168 488 254 33 15 72 33 87 41 14 8 34 14 43
14 9 0 35 9 58 19 102 46 140 59 447 145 145 42 468 99 628 112 255 21 282 21
649 14z m2377 -456 c29 -11 17 -33 -25 -44 -22 -6 -43 -18 -46 -26 -3 -7 -11
-14 -19 -14 -8 0 -14 -4 -14 -10 0 -5 -6 -10 -14 -10 -8 0 -17 -7 -20 -16 -4
-9 -9 -14 -13 -11 -3 4 0 14 8 23 8 10 13 20 11 23 -2 3 5 11 15 16 10 6 27
20 38 31 16 17 51 42 62 44 1 0 8 -3 17 -6z m-324 -94 c0 -5 6 -10 14 -10 10
0 14 -19 15 -77 2 -82 6 -97 25 -90 7 3 13 -4 13 -14 1 -10 -3 -19 -10 -19 -6
0 -2 -7 9 -15 11 -8 14 -15 7 -15 -7 0 -13 -4 -13 -10 0 -11 -36 -50 -46 -50
-3 0 -3 9 1 20 10 32 -16 15 -50 -33 -36 -50 -42 -62 -25 -52 7 4 16 2 21 -6
7 -11 9 -10 9 4 0 9 5 17 10 17 14 0 60 -46 60 -60 0 -13 -49 -78 -97 -129
-18 -19 -33 -38 -33 -42 0 -4 -13 -22 -29 -40 -19 -20 -30 -45 -33 -70 -2 -22
-1 -39 3 -39 12 0 42 40 69 94 35 70 48 86 72 86 16 0 19 -4 13 -22 -3 -13 -9
-44 -12 -70 -3 -26 -13 -55 -22 -65 -39 -42 -71 -91 -71 -108 0 -17 2 -17 23
3 12 11 34 24 50 27 18 5 29 16 34 34 3 14 21 58 39 96 21 44 31 79 27 93 -3
14 3 31 21 53 14 17 26 37 26 45 0 9 6 22 14 30 8 7 16 19 19 26 3 10 7 10 17
1 16 -15 6 -57 -20 -83 -11 -11 -17 -26 -14 -35 4 -9 1 -15 -8 -15 -14 0 -55
-66 -46 -75 3 -3 14 11 24 32 18 37 19 37 22 11 3 -24 -20 -85 -37 -98 -13
-10 -31 -62 -31 -88 0 -15 -11 -44 -25 -64 -14 -20 -25 -40 -25 -43 0 -3 -18
-36 -40 -72 -63 -105 -50 -126 26 -44 40 44 48 48 65 38 26 -16 24 -27 -16
-105 -19 -37 -48 -98 -65 -136 -17 -38 -44 -81 -60 -96 -16 -15 -26 -31 -22
-35 4 -5 0 -6 -9 -2 -23 8 -64 -33 -64 -63 0 -38 -28 -31 -40 11 -5 19 -23 48
-40 63 -16 16 -30 38 -30 50 0 15 -6 21 -23 21 -50 1 -53 57 -10 154 15 35 27
65 25 67 -6 7 -25 -14 -57 -63 -18 -29 -38 -53 -44 -53 -6 0 -22 9 -35 19 -25
19 -25 20 -9 58 9 21 23 56 30 78 13 43 61 122 103 169 14 16 25 33 25 37 0 4
11 20 25 35 14 15 23 29 20 32 -9 10 -47 -33 -67 -74 -22 -47 -92 -109 -113
-100 -23 8 -7 36 57 97 66 63 73 81 28 73 -16 -4 -30 -2 -30 3 0 5 18 33 40
63 22 29 37 57 34 61 -9 14 -30 10 -57 -11 -14 -11 -38 -20 -53 -20 -30 0 -64
-25 -64 -48 0 -19 -30 -41 -47 -35 -21 8 -16 18 40 84 28 34 62 75 74 92 12
16 43 51 68 78 25 26 45 51 45 56 0 5 11 20 25 33 14 13 25 29 25 36 0 6 18
28 39 47 22 19 37 37 35 40 -3 3 11 22 30 43 48 52 58 97 14 62 -8 -7 -22 -23
-30 -36 -18 -26 -75 -88 -109 -118 -13 -11 -60 -60 -104 -109 -44 -49 -96
-102 -115 -119 -19 -17 -62 -60 -96 -94 -37 -39 -68 -63 -78 -60 -15 3 -14 7
6 34 52 72 109 142 149 184 23 25 58 65 76 89 87 113 290 324 328 341 44 21
85 25 85 10z m307 -47 c2 -6 -7 -13 -21 -15 -15 -3 -24 -1 -23 6 5 25 37 31
44 9z m-177 -37 c0 -18 -46 -73 -54 -65 -6 5 6 33 27 67 11 16 27 15 27 -2z
m100 5 c0 -6 -10 -17 -22 -26 -28 -19 -40 1 -12 22 21 15 34 17 34 4z m-64
-75 c7 -19 -58 -79 -68 -63 -4 7 -3 14 2 15 6 2 8 8 4 13 -3 5 1 9 9 9 8 0 17
9 20 20 6 23 25 26 33 6z m-149 -162 c-3 -3 -12 -4 -19 -1 -8 3 -5 6 6 6 11 1
17 -2 13 -5z m-7 -24 c0 -5 -4 -10 -10 -10 -5 0 -10 5 -10 10 0 6 5 10 10 10
6 0 10 -4 10 -10z m-5376 -81 c67 -33 146 -70 176 -81 30 -12 66 -32 80 -46
19 -19 37 -26 71 -27 47 -2 89 -30 89 -58 0 -27 60 -60 123 -66 4 -1 7 -7 7
-14 0 -6 19 -29 43 -49 102 -90 148 -128 157 -128 5 0 22 -19 38 -42 43 -62
68 -88 83 -88 18 0 109 -69 123 -94 6 -10 27 -33 45 -51 33 -31 34 -34 18 -49
-9 -10 -17 -13 -17 -7 0 6 -8 11 -17 11 -21 0 -74 31 -101 58 -11 11 -28 25
-38 31 -14 8 -16 13 -7 19 9 6 -16 31 -80 82 -50 41 -98 80 -105 87 -7 7 -23
13 -34 13 l-21 0 20 -22 c11 -13 26 -33 32 -46 10 -19 8 -26 -15 -47 -32 -29
-37 -30 -59 -9 -15 15 -17 15 -34 0 -10 -9 -25 -16 -35 -16 -24 0 -31 -28 -12
-49 9 -10 13 -21 9 -26 -5 -4 0 -5 10 -2 13 5 17 3 14 -5 -2 -9 -22 -12 -59
-11 l-56 2 30 -30 c17 -16 52 -41 79 -55 27 -13 49 -26 49 -28 0 -3 3 -11 6
-19 3 -8 -4 -24 -16 -35 l-22 -20 21 -18 c12 -10 21 -26 21 -36 0 -10 5 -18
10 -18 6 0 10 -4 10 -10 0 -10 -63 20 -68 33 -2 4 -17 14 -33 23 -46 23 -49
-6 -7 -59 51 -63 75 -161 43 -173 -18 -7 -19 -33 -2 -54 7 -8 35 -34 64 -58
45 -37 53 -49 59 -89 7 -51 -5 -67 -43 -58 -13 3 -23 1 -23 -5 0 -13 -46 -13
-71 0 -11 6 -31 29 -44 51 -14 22 -35 49 -45 59 -23 23 -26 50 -7 50 7 0 26
-13 42 -30 27 -28 65 -41 65 -21 0 5 -20 34 -44 66 -27 34 -47 72 -51 96 -4
21 -12 42 -19 46 -7 5 -23 24 -36 43 -13 19 -28 40 -35 45 -18 16 -85 114 -85
125 0 13 50 2 71 -16 21 -19 29 -18 29 4 0 10 -28 45 -63 78 -65 61 -129 150
-142 194 -4 14 -16 44 -27 67 -43 92 15 114 97 37 39 -36 51 -43 60 -32 15 19
52 38 74 38 35 0 34 20 -2 35 -18 7 -57 17 -86 21 -29 4 -62 15 -74 25 -19 15
-20 21 -10 38 12 18 9 22 -33 41 -26 11 -50 20 -54 20 -4 0 -13 6 -19 14 -15
18 4 33 22 17 7 -5 32 -14 55 -19 35 -8 41 -8 34 5 -5 8 -18 20 -29 26 -11 7
-35 20 -54 31 -19 10 -55 19 -86 20 -62 2 -76 13 -78 60 -1 30 3 35 29 40 28
6 29 7 11 26 -10 11 -48 40 -84 65 -54 36 -77 45 -126 50 -38 4 -67 13 -79 25
-18 17 -18 18 3 39 17 17 33 21 83 21 55 0 73 -6 182 -61z m-134 -84 c0 -9 -6
-12 -15 -9 -8 4 -15 10 -15 15 0 5 7 9 15 9 8 0 15 -7 15 -15z m3520 -296 c0
-10 -6 -19 -14 -19 -9 0 -12 8 -8 25 5 28 22 24 22 -6z m-412 -382 c14 -17 -2
-42 -22 -34 -20 8 -21 47 -2 47 7 0 18 -6 24 -13z m1372 -51 c0 -8 -4 -17 -8
-20 -13 -8 -35 11 -28 23 10 16 36 14 36 -3z m-172 -61 c-3 -3 -9 2 -12 12 -6
14 -5 15 5 6 7 -7 10 -15 7 -18z m223 -18 c-13 -13 -26 -3 -16 12 3 6 11 8 17
5 6 -4 6 -10 -1 -17z m-221 -27 c0 -13 -7 -20 -20 -20 -23 0 -26 10 -8 28 18
18 28 15 28 -8z m-870 -15 c0 -8 -9 -15 -20 -15 -13 0 -18 5 -14 15 4 8 12 15
20 15 8 0 14 -7 14 -15z m1970 7 c0 -13 -38 -46 -56 -48 -15 -2 -11 8 15 37
17 18 41 25 41 11z m-3206 -153 c34 -40 33 -50 -6 -42 -41 7 -58 20 -58 43 0
40 30 40 64 -1z m72 -6 c-3 -3 -13 -3 -22 1 -13 5 -14 9 -3 22 11 14 13 14 22
-1 5 -9 6 -19 3 -22z m11 -73 c16 0 32 -22 26 -36 -8 -22 -40 -16 -46 9 -2 12
-8 31 -12 42 -6 19 -6 19 8 3 8 -10 18 -18 24 -18z m109 -27 c-5 -12 -9 -13
-21 -3 -19 16 -19 25 3 46 16 17 17 17 20 -5 2 -12 1 -29 -2 -38z m2049 19
c-3 -3 -15 -6 -28 -7 -15 -1 -23 -9 -25 -26 -5 -33 -22 -53 -35 -40 -7 7 -6
15 3 26 7 8 10 24 7 34 -4 16 1 20 27 23 34 4 60 -1 51 -10z m-275 -12 c0 -11
-4 -20 -10 -20 -5 0 -10 9 -10 20 0 11 5 20 10 20 6 0 10 -9 10 -20z m330 0
c0 -5 -4 -10 -9 -10 -6 0 -13 5 -16 10 -3 6 1 10 9 10 9 0 16 -4 16 -10z
m-725 -10 c4 -6 11 -8 16 -5 5 4 9 -3 9 -14 0 -12 -2 -21 -5 -21 -8 0 -45 34
-45 42 0 11 18 10 25 -2z m285 -19 c0 -5 11 -8 25 -8 36 0 42 -10 24 -41 -18
-34 -60 -44 -52 -13 3 12 10 21 17 21 6 0 -4 8 -21 16 -18 9 -30 20 -27 25 7
12 34 12 34 0z m-1520 -36 c0 -8 -7 -15 -15 -15 -8 0 -15 7 -15 15 0 8 7 15
15 15 8 0 15 -7 15 -15z m897 -78 c-6 -20 -27 -19 -27 2 0 14 5 19 15 14 9 -3
14 -10 12 -16z m-247 -87 c0 -5 -4 -10 -10 -10 -5 0 -10 5 -10 10 0 6 5 10 10
10 6 0 10 -4 10 -10z m827 -133 c1 -26 -2 -47 -7 -47 -6 0 -10 8 -10 18 0 10
-5 23 -12 30 -9 9 -9 12 3 12 12 0 12 2 0 9 -16 10 -5 34 12 28 7 -2 13 -25
14 -50z m90 47 c-3 -3 -12 -4 -19 -1 -8 3 -5 6 6 6 11 1 17 -2 13 -5z m-591
-59 c-9 -7 -16 -18 -16 -24 0 -7 -4 -9 -10 -6 -15 9 -12 32 7 55 16 18 18 18
27 3 6 -11 4 -20 -8 -28z m1213 15 c52 -11 112 -33 145 -52 l57 -33 -5 -78
c-7 -102 -25 -194 -46 -237 -10 -19 -28 -59 -41 -89 -48 -109 -153 -180 -274
-184 -42 -2 -50 1 -53 17 -2 11 4 26 14 33 10 7 14 13 10 13 -5 0 4 16 19 36
45 59 66 127 66 215 0 83 -24 191 -47 210 -8 6 -14 15 -14 20 0 5 -11 27 -25
49 -14 22 -25 44 -25 49 0 17 68 46 118 50 7 1 52 -8 101 -19z m-279 -99 c0
-27 -26 -119 -46 -168 -20 -45 -17 -147 6 -232 12 -40 19 -79 17 -85 -2 -6 2
-15 9 -21 8 -6 11 -21 7 -37 -5 -25 -8 -27 -47 -24 -56 5 -105 17 -112 27 -3
5 -13 9 -22 9 -30 0 -111 87 -118 127 -13 71 37 234 88 285 10 10 18 21 18 26
0 4 22 31 49 60 32 34 54 50 64 46 20 -7 60 14 51 27 -3 6 3 5 15 -3 12 -7 21
-23 21 -37z m-2176 -7 c21 -8 20 -30 -1 -46 -10 -7 -18 -17 -18 -23 0 -5 -6
-54 -14 -108 -7 -53 -11 -114 -8 -135 11 -72 36 -172 50 -204 31 -70 47 -120
42 -129 -11 -17 -35 -9 -47 16 -6 14 -20 25 -30 25 -11 0 -16 -5 -13 -11 7
-11 -64 -6 -101 7 -38 14 -95 67 -121 112 -15 26 -31 49 -35 50 -4 2 -8 9 -8
16 0 7 -8 28 -17 47 -22 43 -30 187 -13 229 17 42 85 100 116 100 14 0 35 5
47 12 12 6 51 19 87 29 36 10 66 18 67 18 1 1 8 -2 17 -5z m1643 -56 c-2 -12
-9 -24 -15 -26 -13 -4 -15 8 -6 32 9 24 24 19 21 -6z m-1375 -25 c15 -7 31
-19 35 -26 4 -6 24 -24 44 -39 23 -17 48 -52 71 -100 57 -120 62 -140 44 -201
-34 -117 -148 -206 -277 -215 -100 -7 -106 -2 -72 55 15 27 31 51 36 54 5 3 8
10 8 15 -1 5 4 16 11 24 29 34 31 320 2 320 -10 0 -16 18 -30 90 -8 39 68 53
128 23z m1343 -43 c3 -10 1 -29 -5 -40 -9 -17 -14 -19 -26 -9 -17 14 -19 56
-1 62 21 9 26 7 32 -13z m5 -154 c0 -2 -7 -7 -16 -10 -8 -3 -12 -2 -9 4 6 10
25 14 25 6z m145 -296 c-3 -5 -13 -10 -21 -10 -8 0 -14 5 -14 10 0 6 9 10 21
10 11 0 17 -4 14 -10z m930 0 c3 -5 -1 -10 -9 -10 -9 0 -16 5 -16 10 0 6 4 10
9 10 6 0 13 -4 16 -10z m-945 -72 c0 -12 -3 -18 -7 -14 -11 10 -12 36 -2 36 5
0 9 -10 9 -22z m50 -13 c0 -8 -2 -15 -4 -15 -2 0 -6 7 -10 15 -3 8 -1 15 4 15
6 0 10 -7 10 -15z m-56 -144 c-8 -9 -22 12 -17 26 6 15 7 14 13 -3 4 -10 6
-21 4 -23z m-524 -55 c-8 -8 -31 -16 -50 -18 -51 -5 -53 24 -3 44 32 13 40 13
53 2 13 -12 13 -16 0 -28z m553 -18 c4 1 7 -2 7 -8 0 -5 -13 -10 -30 -10 -24
0 -30 4 -30 20 0 18 2 19 23 8 12 -7 25 -11 30 -10z m-115 -68 c7 -8 22 -34
32 -58 11 -24 27 -50 35 -58 16 -17 20 -51 6 -72 -4 -7 -23 -12 -42 -12 -19 1
-57 -6 -86 -14 -28 -8 -60 -12 -71 -9 -11 2 -40 -5 -66 -16 -41 -19 -46 -25
-46 -54 0 -38 12 -59 30 -55 22 5 23 -23 1 -29 -12 -3 -21 -10 -21 -15 0 -17
-173 23 -186 44 -4 6 -8 30 -10 55 -1 25 -6 49 -11 53 -4 5 -33 11 -63 14 -30
3 -83 9 -118 12 -34 4 -64 10 -67 14 -11 18 12 53 62 91 l55 41 116 -7 c97 -6
125 -4 162 10 25 9 66 24 92 34 26 9 56 23 65 31 55 47 64 50 92 32 14 -9 32
-24 39 -32z m-3993 -90 c3 -5 2 -10 -4 -10 -5 0 -13 5 -16 10 -3 6 -2 10 4 10
5 0 13 -4 16 -10z m4745 -102 c0 -4 -4 -8 -9 -8 -5 0 -23 -3 -40 -6 -24 -5
-31 -3 -31 9 0 12 10 16 40 14 22 -1 40 -5 40 -9z m-110 -15 c0 -8 -13 -13
-34 -13 -36 0 -56 14 -34 23 24 10 68 3 68 -10z m-490 -52 c0 -10 -9 -30 -20
-44 -11 -14 -20 -39 -20 -56 0 -33 -14 -39 -42 -17 -25 18 -22 45 5 55 12 5
31 25 42 45 21 40 35 46 35 17z m-974 -33 c10 -12 15 -19 9 -16 -5 3 -18 8
-28 11 -10 4 -15 11 -12 17 8 13 9 13 31 -12z m142 -65 c2 -7 -4 -16 -12 -19
-21 -8 -76 14 -76 30 0 17 82 5 88 -11z m649 -445 c33 -13 39 -15 57 -17 15
-1 29 -28 21 -41 -3 -5 -26 -2 -51 7 -47 16 -107 14 -214 -7 -30 -6 -86 -8
-125 -5 -38 3 -162 8 -275 12 -113 3 -217 7 -232 7 -27 1 -26 12 2 18 8 2 21
9 29 17 12 10 32 12 90 5 65 -6 300 -14 464 -15 27 0 58 6 70 14 27 18 126 21
164 5z m263 -23 c7 -8 10 -15 7 -15 -4 0 0 -18 8 -41 11 -29 14 -77 13 -162
-2 -67 1 -148 5 -179 8 -56 7 -58 -18 -64 -25 -6 -55 9 -55 29 0 5 -7 15 -15
21 -16 12 -33 137 -37 262 -2 75 6 99 28 90 16 -6 34 23 34 53 0 25 13 27 30
6z m-1222 -48 c3 -29 9 -40 27 -47 18 -7 25 -19 31 -56 8 -52 0 -177 -13 -197
-4 -6 -9 -41 -9 -77 -3 -107 -1 -102 -26 -95 -13 4 -28 12 -35 19 -14 12 -74
301 -75 356 -1 102 92 193 100 97z m946 -405 c8 -24 0 -418 -9 -431 -3 -6 -10
-80 -15 -166 -11 -183 -49 -331 -98 -380 -15 -15 -27 -32 -27 -39 0 -10 -15
-11 -103 -5 -12 1 -27 10 -32 20 -9 15 -15 17 -37 8 -14 -5 -30 -6 -35 -1 -30
30 -53 413 -35 597 4 44 10 107 13 140 6 62 8 72 18 115 3 14 8 41 10 62 5 44
20 74 42 82 9 3 51 4 93 1 62 -5 120 -1 203 14 4 0 9 -7 12 -17z m-1380 -102
c13 -25 21 -51 19 -57 -3 -7 -1 -13 4 -13 10 0 34 -52 53 -115 7 -22 16 -49
21 -60 4 -11 15 -44 25 -74 9 -29 37 -95 63 -145 25 -50 52 -107 60 -125 33
-79 54 -139 67 -187 17 -65 45 -114 106 -186 26 -31 48 -61 48 -67 0 -16 42
-13 67 4 29 20 133 32 142 16 13 -20 712 -17 778 4 11 4 27 33 85 150 35 70
55 127 92 260 14 50 32 128 40 175 21 115 21 117 44 185 11 34 23 80 27 104 4
25 19 56 35 75 l28 31 -13 -52 c-25 -97 -95 -436 -109 -533 -10 -66 -46 -194
-62 -217 -8 -13 -19 -21 -24 -18 -5 3 -12 -7 -16 -22 -9 -37 -52 -123 -62
-123 -4 0 -13 -12 -20 -27 -32 -70 -12 -66 -324 -65 -156 1 -328 4 -383 7
-191 10 -234 9 -255 -10 -29 -26 -78 -11 -122 38 -21 23 -38 47 -38 54 0 7 -4
13 -9 13 -16 0 -79 94 -108 161 -15 35 -30 66 -34 69 -10 8 -100 292 -113 356
-1 7 -7 19 -14 26 -7 8 -16 37 -22 64 -20 95 -22 104 -32 104 -5 0 -7 4 -4 9
3 4 -6 23 -19 41 -14 19 -25 39 -25 46 0 6 -8 31 -19 55 -10 24 -21 64 -24 89
-5 42 -5 44 9 25 9 -11 26 -40 38 -65z m-2149 50 c10 -11 24 -20 30 -20 14 0
121 -124 158 -182 19 -31 22 -83 7 -124 -6 -15 -13 -55 -15 -88 -3 -34 -8 -72
-10 -86 -6 -30 -68 -100 -87 -100 -8 0 -30 -8 -50 -19 -31 -15 -46 -17 -90 -9
-29 5 -65 7 -80 4 -37 -7 -89 12 -113 43 -11 14 -38 47 -61 72 -25 29 -45 64
-53 93 -15 59 -34 60 -99 3 -69 -62 -110 -84 -168 -92 -42 -5 -52 -4 -58 10
-3 9 -1 25 4 36 8 14 7 27 -5 48 -32 63 -19 93 53 126 32 14 73 34 92 45 19
11 86 45 149 75 63 31 119 62 125 70 21 25 81 55 114 55 20 0 40 8 54 22 13
13 29 22 35 20 7 -2 13 2 13 8 0 17 36 11 55 -10z m2978 -12 c13 -20 35 -127
79 -373 8 -43 13 -162 13 -305 0 -215 -7 -302 -22 -287 -3 4 -17 -3 -31 -14
-16 -12 -28 -16 -32 -9 -4 6 -17 6 -40 0 -47 -14 -59 -12 -37 5 11 7 26 11 35
9 13 -4 13 -3 -1 6 -14 9 -22 9 -30 1 -6 -6 -18 -11 -26 -11 -12 0 -12 3 -3
12 16 16 15 28 -1 28 -24 0 -56 57 -81 146 -26 93 -30 117 -46 249 -6 44 -14
100 -19 125 -5 25 -12 90 -16 145 -3 55 -12 136 -20 180 -17 96 -11 108 49
100 23 -3 73 -1 111 4 104 13 103 13 118 -11z m3071 -46 c62 -45 116 -94 116
-106 0 -6 20 -32 45 -57 24 -25 44 -55 44 -65 0 -61 13 -235 21 -266 4 -21 4
-36 0 -33 -11 7 -33 -22 -25 -35 4 -6 1 -9 -7 -8 -7 2 -14 -8 -16 -22 -2 -14
-9 -31 -14 -37 -8 -9 -7 -13 3 -13 8 0 1 -10 -14 -23 -16 -12 -47 -39 -70 -60
-44 -40 -69 -49 -182 -67 -68 -11 -75 -10 -164 20 -167 56 -233 117 -305 284
-18 41 -38 81 -43 88 -30 37 -41 210 -12 193 5 -4 9 2 9 12 0 10 14 29 30 43
16 14 44 37 60 53 17 15 36 27 42 27 5 0 8 9 5 19 -4 16 6 25 47 45 29 14 62
27 74 29 12 2 25 7 29 11 5 4 70 6 146 4 135 -5 138 -5 181 -36z m-5320 -514
c9 -10 22 -31 27 -48 10 -26 7 -39 -16 -85 -14 -30 -30 -55 -35 -55 -5 0 -15
-6 -22 -12 -17 -16 -78 -38 -106 -38 -12 0 -23 -7 -23 -15 -1 -8 -3 -19 -4
-25 -1 -5 -3 -23 -4 -38 -1 -22 -79 -160 -118 -207 -4 -6 -26 -35 -48 -65 -54
-74 -78 -106 -123 -165 -21 -27 -60 -81 -87 -120 -57 -82 -60 -84 -100 -82
-49 3 -150 107 -104 107 7 0 9 12 6 33 -3 23 1 38 15 54 l21 22 -29 35 c-57
68 -101 131 -108 153 -7 21 -8 21 -56 7 -74 -22 -97 -12 -115 49 -26 87 -24
90 63 127 69 29 159 56 262 79 19 4 46 15 60 23 51 33 157 71 210 75 30 3 82
11 115 18 44 9 65 9 79 1 14 -8 20 -8 23 2 3 6 22 15 44 18 66 11 67 18 23
121 -8 17 -14 35 -14 40 0 4 33 8 73 8 56 0 77 -4 91 -17z m4560 -43 c11 -8
28 -15 37 -15 17 0 68 -43 70 -58 0 -4 2 -18 3 -31 2 -14 -7 -35 -20 -50 -13
-14 -35 -39 -49 -55 -29 -31 -28 -44 0 -60 11 -6 44 -27 75 -47 30 -20 75 -46
100 -59 25 -12 59 -33 76 -46 17 -12 43 -26 58 -30 14 -3 26 -9 26 -13 0 -3
16 -15 36 -26 20 -11 40 -28 45 -40 5 -11 23 -38 39 -60 16 -22 29 -46 30 -53
0 -25 -51 -81 -81 -87 -16 -4 -29 -11 -29 -16 0 -20 -33 -6 -122 53 -51 34
-99 68 -106 75 -18 17 -151 103 -173 112 -10 3 -40 27 -67 54 -49 46 -102 64
-102 34 0 -7 -11 -24 -24 -38 -13 -14 -29 -35 -35 -48 -11 -20 -17 -22 -54
-16 -61 10 -104 30 -117 55 -10 18 -8 26 8 43 11 12 37 54 58 93 59 107 118
204 126 204 3 0 39 32 79 70 39 39 77 70 83 70 6 0 20 -7 30 -15z m-1954 -425
c0 -5 -7 -10 -16 -10 -8 0 -12 5 -9 10 3 6 10 10 16 10 5 0 9 -4 9 -10z m-143
-6 c-3 -3 -12 -4 -19 -1 -8 3 -5 6 6 6 11 1 17 -2 13 -5z m-2412 -93 c-5 -15
-1 -18 20 -13 16 3 24 10 21 17 -8 22 35 5 94 -37 82 -57 120 -90 120 -104 0
-6 26 -39 58 -72 79 -82 97 -139 82 -253 -11 -79 -45 -179 -62 -179 -4 0 -14
-13 -23 -29 -8 -16 -25 -33 -37 -37 -13 -3 -31 -14 -40 -23 -76 -72 -186 -123
-268 -125 -30 -1 -94 10 -141 23 -78 21 -94 29 -153 83 -93 84 -107 106 -110
180 -2 35 -7 79 -11 99 -6 31 -3 39 28 72 19 20 47 56 63 79 86 131 279 325
327 331 18 2 33 5 35 5 2 1 1 -6 -3 -17z m3914 -125 c6 -7 22 -11 34 -9 22 4
123 -42 157 -72 8 -8 53 -29 99 -49 46 -19 90 -44 98 -56 8 -11 18 -18 23 -15
4 3 10 2 12 -2 7 -18 72 -55 104 -60 19 -3 39 -14 45 -24 5 -11 16 -19 24 -19
8 0 15 -4 15 -10 0 -21 41 -50 70 -50 18 0 33 -6 36 -15 3 -8 14 -17 25 -20
33 -11 21 -45 -36 -102 l-56 -54 -37 12 c-20 7 -52 20 -70 31 -34 19 -67 24
-58 9 3 -4 -15 -23 -39 -40 -25 -18 -45 -38 -45 -44 0 -7 -15 -21 -34 -31 -44
-24 -64 -60 -48 -87 7 -11 13 -42 13 -70 2 -47 -4 -63 -19 -64 -4 -1 -29 -15
-56 -33 -44 -28 -52 -30 -70 -19 -11 8 -23 20 -28 28 -19 35 -58 148 -58 168
0 12 -6 32 -14 44 -15 22 -77 183 -118 305 -11 34 -31 72 -43 85 -49 48 -61
183 -18 202 12 5 28 21 35 35 21 41 38 49 57 26z m-454 -352 c60 -12 59 -12
74 -13 8 0 11 -4 8 -7 -3 -4 0 -16 8 -28 8 -11 15 -28 15 -37 0 -23 -49 -71
-104 -102 -38 -21 -51 -23 -88 -17 -25 5 -47 5 -52 -1 -6 -5 -22 -9 -37 -9
-41 0 -115 -37 -134 -67 -23 -35 -23 -88 0 -187 31 -137 102 -185 266 -181 94
3 141 34 155 103 10 52 -3 55 -100 25 -108 -33 -118 -28 -123 72 -1 36 -5 70
-8 76 -4 5 0 9 7 10 10 0 10 2 0 6 -15 6 -6 23 13 23 8 0 30 11 49 23 61 42
162 68 245 64 72 -4 74 -4 87 -35 7 -18 10 -32 6 -32 -4 0 2 -7 12 -15 17 -13
18 -24 13 -117 -8 -122 -46 -300 -71 -327 -9 -10 -51 -36 -93 -57 l-77 -39
-135 3 c-87 2 -145 8 -161 16 -167 88 -209 120 -248 195 -49 93 -64 160 -56
257 4 46 11 87 15 90 5 3 9 16 9 28 0 36 67 157 114 204 49 49 115 72 236 82
78 6 89 6 155 -6z m-2481 -115 c37 -22 93 -97 103 -139 3 -14 14 -35 23 -47 9
-12 23 -50 30 -85 8 -35 26 -87 42 -117 15 -29 28 -58 28 -65 1 -15 69 -91 75
-84 3 3 8 18 10 34 3 16 9 45 14 64 6 19 17 65 25 102 17 70 50 137 69 139 23
2 83 -2 110 -7 27 -6 27 -7 27 -82 0 -55 -7 -95 -24 -142 -29 -82 -64 -209
-76 -280 -13 -77 -16 -90 -34 -132 -9 -21 -16 -46 -16 -56 0 -11 -12 -31 -26
-45 l-26 -27 -28 23 c-25 21 -51 34 -103 51 -9 3 -22 18 -28 33 -6 16 -19 46
-29 68 -11 22 -29 81 -41 130 -11 50 -35 115 -51 145 -17 30 -37 67 -45 83
-16 29 -34 35 -51 14 -17 -20 -93 -257 -86 -268 3 -6 -7 -27 -23 -47 -15 -20
-27 -40 -25 -44 8 -26 -71 6 -102 41 -11 12 -24 21 -31 21 -13 0 -35 42 -35
68 0 39 59 225 78 245 11 12 23 44 27 72 4 28 12 59 18 70 6 11 12 27 13 35 6
42 43 151 65 190 21 39 41 53 81 59 4 1 23 -8 42 -20z m1195 -140 c17 -6 31
-17 31 -24 0 -7 15 -16 33 -19 24 -5 56 -30 120 -96 48 -50 87 -96 87 -103 0
-8 11 -24 24 -36 32 -30 36 -58 26 -191 -13 -172 -17 -180 -128 -289 -101 -97
-140 -122 -182 -115 -64 9 -126 11 -141 3 -26 -13 -74 6 -127 50 -27 23 -52
41 -56 41 -4 0 -25 14 -46 31 -35 28 -66 80 -61 103 1 5 -7 18 -18 30 -11 12
-26 46 -32 76 -23 106 7 350 42 350 4 0 10 13 14 30 13 57 147 147 234 157 25
3 48 7 50 9 9 8 99 4 130 -7z m-2223 -420 c38 -28 90 -73 117 -101 l47 -50 0
-72 c-1 -46 -6 -78 -15 -90 -8 -11 -15 -27 -15 -36 0 -24 -47 -64 -76 -66 -35
-1 -38 -8 -18 -46 10 -20 17 -55 17 -89 0 -54 -1 -57 -59 -116 -83 -84 -91
-88 -167 -67 -34 10 -71 23 -82 31 -11 7 -27 13 -37 13 -9 0 -37 14 -61 30
-25 17 -47 30 -51 30 -3 0 -30 11 -60 25 -90 41 -100 73 -44 149 15 21 28 43
28 49 0 5 20 31 44 58 28 31 55 76 71 120 15 39 33 73 40 76 8 2 28 30 47 60
18 31 43 67 55 79 12 13 24 33 28 44 5 17 15 20 64 20 54 0 63 -4 127 -51z
m4463 -49 c57 -29 119 -94 126 -132 9 -50 -1 -122 -19 -151 -27 -40 -17 -67
29 -85 22 -9 42 -18 45 -21 12 -14 51 -31 70 -31 11 0 28 -4 38 -9 9 -5 25
-12 35 -15 25 -8 21 -43 -9 -62 -14 -9 -23 -23 -20 -30 7 -17 -18 -36 -51 -39
-16 -1 -41 -5 -58 -9 -30 -6 -91 19 -181 75 -43 26 -53 19 -25 -17 11 -15 21
-31 21 -36 0 -6 13 -30 30 -54 19 -28 27 -50 23 -62 -9 -21 -43 -51 -60 -52
-7 0 -13 -5 -13 -12 0 -6 -3 -9 -6 -5 -4 3 -24 -1 -45 -9 -21 -9 -43 -14 -49
-12 -6 2 -22 29 -34 60 -13 31 -49 97 -80 145 -51 78 -89 141 -137 223 -8 14
-19 32 -25 40 -7 8 -24 39 -39 68 -26 50 -27 54 -10 71 9 11 27 22 40 25 13 3
33 19 44 35 26 36 82 66 153 80 31 7 62 19 68 27 18 20 94 18 139 -6z m-4015
-238 c3 -5 19 -7 36 -4 21 3 42 -3 70 -22 44 -29 44 -24 -5 -151 -14 -38 -35
-95 -46 -125 -11 -30 -33 -80 -48 -110 -43 -83 -45 -121 -11 -158 39 -43 85
-50 136 -21 53 31 61 43 78 119 8 36 27 97 42 135 14 39 36 97 47 129 30 81
39 85 132 56 81 -26 106 -50 80 -80 -7 -8 -16 -28 -19 -45 -7 -27 -56 -137
-121 -270 -13 -27 -32 -72 -41 -99 -21 -57 -41 -79 -107 -112 -43 -22 -58 -25
-130 -21 -85 5 -134 24 -184 71 -39 37 -51 45 -57 39 -3 -4 -6 1 -6 10 0 8
-11 24 -24 34 -29 23 -56 74 -56 106 0 14 7 41 15 60 8 20 15 48 15 62 0 29
56 145 69 145 12 0 21 29 26 80 2 22 11 55 21 73 9 17 25 49 36 70 17 35 40
48 52 29z m3370 -31 c19 -21 46 -101 46 -136 0 -16 -11 -25 -47 -37 -141 -48
-146 -52 -119 -93 16 -24 66 -36 66 -16 0 12 114 29 139 19 12 -4 28 -23 38
-42 23 -49 5 -92 -48 -113 -22 -8 -39 -19 -39 -24 0 -5 -3 -8 -7 -7 -15 3 -63
-21 -63 -32 0 -5 12 -23 28 -39 l27 -30 63 26 c34 14 62 29 62 34 0 5 9 9 19
9 29 0 77 -50 91 -94 13 -39 12 -40 -22 -72 -26 -23 -54 -36 -108 -48 -40 -9
-98 -30 -129 -46 -77 -41 -119 -40 -148 4 -12 19 -29 58 -39 88 -50 163 -80
243 -124 330 -62 123 -71 165 -38 193 12 11 34 22 48 24 14 1 28 8 32 15 4 6
8 7 8 2 0 -5 8 -2 18 6 34 30 178 96 213 97 9 1 24 -8 33 -18z m-553 -250 c10
-29 22 -77 25 -105 4 -28 10 -58 15 -67 5 -9 11 -29 14 -45 2 -16 7 -40 11
-54 13 -56 15 -77 15 -125 -1 -55 -19 -143 -34 -162 -5 -7 -17 -13 -27 -13
-10 0 -29 -15 -43 -32 -18 -24 -41 -38 -85 -52 -33 -10 -64 -16 -69 -13 -5 3
-45 2 -89 -3 -70 -7 -84 -6 -124 14 -30 14 -44 28 -45 42 -1 12 -16 40 -33 62
-30 38 -45 85 -58 182 -2 19 -8 46 -14 60 -5 14 -23 79 -40 145 -30 113 -30
120 -14 132 10 7 32 13 48 13 17 0 40 7 50 15 26 20 38 19 66 -5 16 -14 25
-34 28 -63 2 -23 7 -44 11 -47 14 -9 33 -102 41 -202 9 -94 25 -141 64 -192
12 -15 23 -17 56 -12 22 3 54 15 72 26 45 27 46 73 7 267 -36 177 -43 233 -28
233 6 0 8 4 5 9 -14 22 56 51 118 48 38 -2 40 -4 57 -56z m-1899 -51 c20 -10
53 -22 73 -26 27 -5 52 -22 90 -60 45 -46 54 -61 63 -111 23 -119 23 -122 2
-133 -10 -5 -20 -20 -22 -32 -2 -18 -14 -26 -48 -36 -91 -27 -93 -29 -85 -69
7 -38 48 -126 72 -154 8 -9 13 -20 11 -25 -1 -5 2 -19 6 -32 13 -39 -10 -55
-68 -47 -123 14 -128 18 -157 130 -7 28 -18 56 -25 62 -7 7 -14 18 -16 25 -8
23 -26 -3 -44 -62 -10 -33 -26 -69 -35 -79 -16 -17 -23 -18 -79 -6 -34 7 -63
15 -66 18 -3 3 -10 22 -14 42 -9 40 0 93 42 255 14 52 33 137 43 189 9 52 23
101 31 108 8 8 14 25 14 37 0 12 2 25 5 28 13 13 172 -4 207 -22z m910 -31
c21 1 41 -12 80 -49 28 -27 55 -50 60 -50 4 0 15 -11 24 -25 15 -23 15 -26 -8
-54 -28 -37 -55 -46 -102 -33 -19 6 -45 8 -56 5 -11 -3 -20 -1 -20 4 0 14 -70
41 -108 41 -17 0 -40 3 -50 7 -53 16 -96 -75 -97 -201 0 -64 3 -76 34 -120 49
-73 82 -84 182 -63 53 11 106 50 94 69 -3 6 -32 10 -64 10 -35 0 -62 5 -68 13
-15 21 -15 105 2 136 15 30 47 47 64 36 6 -3 65 -8 133 -11 68 -3 129 -7 137
-10 21 -7 9 -120 -19 -174 -13 -25 -24 -57 -25 -72 -2 -15 -13 -40 -26 -56
-24 -30 -108 -72 -143 -72 -10 0 -30 -8 -44 -18 -47 -32 -113 -53 -146 -47
-43 9 -165 72 -199 104 -64 59 -117 196 -117 300 1 112 70 261 121 261 10 0
19 4 21 8 5 13 90 55 128 63 19 4 69 5 110 2 41 -3 87 -5 102 -4z"/>
<path d="M4830 9048 c-292 -33 -430 -53 -535 -78 -66 -16 -140 -32 -165 -35
-25 -4 -54 -10 -65 -15 -58 -24 -169 -62 -239 -80 -43 -11 -94 -29 -115 -39
-20 -10 -79 -35 -131 -55 -170 -67 -195 -78 -210 -91 -8 -7 -53 -31 -99 -54
-46 -23 -149 -86 -228 -139 -80 -53 -157 -105 -172 -114 -14 -10 -26 -23 -26
-30 0 -14 179 -91 280 -120 39 -11 75 -23 80 -27 6 -4 42 -20 80 -36 87 -36
142 -68 127 -73 -23 -7 -12 -18 32 -30 42 -13 106 -6 106 11 -1 16 36 45 72
56 21 7 40 17 43 22 4 5 18 9 33 9 55 0 180 32 267 69 50 21 126 46 170 55 44
10 94 21 110 26 17 5 41 12 55 14 14 3 54 12 90 20 150 34 230 46 315 46 50 0
135 5 190 11 103 10 419 14 433 5 4 -3 75 -14 158 -26 82 -11 183 -27 224 -35
188 -37 281 -57 360 -76 49 -11 116 -20 159 -19 88 1 96 6 218 127 46 46 91
83 99 83 7 0 14 4 14 9 0 4 19 21 43 37 23 16 55 41 71 56 17 16 33 28 37 28
22 0 159 105 148 113 -31 22 -363 156 -469 189 -52 16 -104 33 -115 38 -11 5
-51 16 -90 26 -38 9 -101 25 -140 35 -105 28 -348 66 -540 84 -179 17 -540 18
-675 3z"/>
<path d="M6426 5290 l-50 -5 -12 -65 c-6 -36 -14 -81 -16 -100 -6 -45 -32 -96
-53 -104 -33 -12 -2 -26 58 -26 62 1 62 1 40 19 -25 21 -30 33 -10 29 18 -3
58 12 77 31 21 19 78 133 84 166 2 13 -2 32 -9 42 -8 10 -15 15 -15 11 0 -4
-10 -4 -22 0 -13 4 -45 5 -72 2z"/>
<path d="M4194 5273 c-46 -4 -52 -7 -57 -28 -5 -30 15 -49 43 -40 12 4 64 7
116 6 69 0 102 -5 126 -18 18 -10 50 -18 71 -18 l37 -1 0 43 c0 26 -5 45 -12
47 -20 6 -266 13 -324 9z"/>
<path d="M4336 5130 c-15 -5 -58 -11 -94 -15 -78 -7 -113 -15 -108 -24 3 -4
-7 -7 -21 -6 -22 0 -27 -5 -29 -32 -1 -18 3 -36 9 -40 7 -4 2 -10 -13 -14 -24
-6 -24 -7 -5 -15 11 -4 26 -14 33 -21 8 -7 19 -10 25 -6 19 12 160 38 185 35
12 -2 22 -9 22 -16 0 -14 63 -36 103 -36 14 0 29 -4 32 -10 9 -14 42 9 50 35
11 36 11 136 0 144 -5 5 -37 11 -70 14 -33 3 -67 8 -75 10 -8 3 -28 1 -44 -3z"/>
<path d="M3870 5074 c-30 -8 -79 -21 -108 -30 -29 -8 -80 -17 -115 -19 -34 -2
-87 -9 -117 -15 -30 -5 -68 -11 -85 -12 -16 0 -61 -9 -100 -19 -38 -10 -117
-28 -175 -39 -58 -12 -134 -27 -170 -35 -131 -29 -234 -38 -351 -30 -63 4
-123 7 -134 7 -56 -1 -390 37 -475 54 -32 7 -34 6 -21 -10 23 -28 154 -112
186 -120 99 -23 133 -27 250 -28 72 -1 173 2 225 6 123 10 111 10 215 3 l90
-5 66 -73 c64 -70 68 -72 110 -71 53 2 79 10 100 29 10 8 39 20 65 28 27 7 78
26 114 43 36 16 92 37 125 47 33 9 69 22 80 28 11 6 31 12 45 13 14 1 27 3 30
4 3 1 10 3 15 4 6 1 17 5 25 8 8 3 33 10 55 15 40 10 171 61 233 91 22 10 29
18 20 23 -6 4 -13 22 -14 40 -1 19 -7 35 -13 37 -6 2 -11 12 -11 23 0 16 -7
19 -52 18 -29 -1 -78 -8 -108 -15z"/>
<path d="M7200 4810 c0 -5 14 -18 30 -30 17 -12 30 -19 30 -15 0 3 8 1 19 -4
27 -15 102 -30 95 -20 -3 5 -11 9 -19 9 -7 0 -26 10 -42 23 -42 35 -113 58
-113 37z"/>
<path d="M7240 4736 c0 -2 11 -11 25 -20 14 -9 25 -13 25 -8 0 5 -11 14 -25
20 -14 6 -25 10 -25 8z"/>
<path d="M2940 4713 c1 -14 49 -67 55 -61 11 11 -19 63 -38 66 -9 2 -17 0 -17
-5z"/>
<path d="M7340 8510 c0 -12 -11 -32 -25 -46 -14 -14 -25 -29 -25 -33 0 -4 -20
-28 -43 -53 -24 -24 -47 -56 -51 -71 -3 -14 -13 -32 -21 -41 -8 -8 -15 -19
-15 -25 0 -6 -5 -11 -12 -11 -6 0 -9 -2 -6 -5 9 -9 65 25 81 48 8 12 30 38 48
58 83 89 122 154 108 181 -13 24 -39 23 -39 -2z"/>
<path d="M7321 8254 c-12 -14 -11 -16 4 -12 10 1 20 9 23 16 5 17 -10 15 -27
-4z"/>
<path d="M7257 7532 c-19 -20 -23 -37 -7 -27 10 6 33 45 27 45 -2 0 -11 -8
-20 -18z"/>
<path d="M7201 7516 c-7 -8 -8 -17 -3 -20 6 -3 13 1 16 10 9 23 2 28 -13 10z"/>
<path d="M2535 7340 c3 -5 11 -10 16 -10 6 0 7 5 4 10 -3 6 -11 10 -16 10 -6
0 -7 -4 -4 -10z"/>
<path d="M5600 3380 c0 -5 5 -10 10 -10 6 0 10 5 10 10 0 6 -4 10 -10 10 -5 0
-10 -4 -10 -10z"/>
<path d="M2158 4063 c-26 -21 -47 -45 -48 -54 0 -8 7 -38 15 -66 12 -39 21
-52 39 -57 59 -15 113 18 134 81 19 57 -28 133 -81 133 -7 0 -33 -17 -59 -37z"/>
<path d="M7981 4065 c-30 -18 -58 -40 -62 -47 -13 -20 -11 -75 7 -133 28 -99
139 -167 281 -173 l83 -4 27 33 c60 70 69 137 26 183 -15 16 -27 36 -28 46 0
9 -14 33 -29 53 -22 29 -36 37 -74 43 -26 3 -51 10 -57 14 -5 4 -35 10 -65 13
-50 5 -60 3 -109 -28z"/>
<path d="M2489 3366 c-20 -7 -57 -25 -84 -39 -26 -15 -58 -27 -71 -27 -33 0
-38 -17 -10 -35 14 -9 34 -32 45 -51 11 -19 26 -34 34 -34 14 0 64 57 85 97 7
12 26 37 42 55 17 18 30 36 30 40 0 12 -30 9 -71 -6z"/>
<path d="M3038 2944 c-24 -25 -44 -50 -46 -55 -2 -5 -9 -9 -16 -9 -19 0 -61
-45 -80 -83 -8 -18 -25 -42 -37 -53 -11 -10 -30 -36 -40 -57 -23 -44 -15 -69
28 -86 16 -5 47 -25 71 -43 36 -27 50 -32 96 -31 30 0 61 5 69 9 50 30 114
109 136 167 19 49 14 142 -9 168 -12 15 -19 19 -20 10 0 -15 -40 31 -40 46 0
9 -33 41 -57 56 -7 4 -30 -12 -55 -39z"/>
<path d="M7100 2780 c0 -19 60 -130 70 -130 5 0 12 -11 16 -25 14 -58 64 -50
85 13 10 32 9 35 -27 67 -32 29 -125 85 -140 85 -2 0 -4 -5 -4 -10z"/>
<path d="M5105 2236 c-22 -6 -47 -15 -55 -21 -8 -5 -24 -15 -35 -20 -55 -28
-60 -257 -8 -331 41 -58 61 -69 123 -69 44 0 64 5 80 20 14 12 36 20 59 20 32
0 36 3 39 28 2 15 7 25 12 22 23 -14 44 93 27 136 -5 13 -12 33 -14 44 -2 11
-11 36 -20 55 -9 19 -19 42 -23 50 -6 13 -126 80 -140 78 -3 0 -23 -6 -45 -12z"/>
<path d="M2898 1866 c-36 -56 -36 -89 -3 -104 60 -27 95 -4 95 61 0 47 -22 87
-48 87 -9 -1 -29 -20 -44 -44z"/>
<path d="M2775 1672 c-22 -16 -56 -101 -49 -126 7 -31 44 -56 81 -56 52 1 93
53 68 86 -8 11 -15 29 -15 41 0 13 -13 29 -34 42 -37 24 -37 23 -51 13z"/>
<path d="M7285 1822 c-6 -4 -16 -19 -22 -33 -14 -31 8 -85 38 -94 10 -4 19
-10 19 -15 0 -4 10 -10 21 -13 26 -7 79 41 79 72 0 32 -62 91 -96 91 -16 0
-34 -4 -39 -8z"/>
<path d="M4311 1253 c-5 -10 -12 -43 -16 -74 -8 -63 -3 -70 47 -71 46 -2 82
43 74 91 -6 41 -37 71 -72 71 -13 0 -27 -8 -33 -17z"/>
</g>
</svg>
